<?xml version="1.0" standalone="no"?>
<!DOCTYPE svg PUBLIC "-//W3C//DTD SVG 20010904//EN"
 "http://www.w3.org/TR/2001/REC-SVG-20010904/DTD/svg10.dtd">
<svg version="1.0" xmlns="http://www.w3.org/2000/svg"
 width="200.000000pt" height="200.000000pt" viewBox="0 0 200.000000 200.000000"
 preserveAspectRatio="xMidYMid meet">

<g transform="translate(0.000000,200.000000) scale(0.100000,-0.100000)"
fill="#000000" stroke="none">
<path d="M836 1704 c-229 -55 -426 -255 -481 -485 -21 -92 -19 -239 5 -335 56
-217 247 -408 464 -464 96 -24 243 -26 336 -4 232 54 430 252 485 485 19 82
19 236 0 318 -55 233 -253 431 -486 486 -80 18 -244 18 -323 -1z m319 -30
c214 -50 403 -239 461 -459 20 -78 20 -232 0 -310 -58 -219 -242 -403 -461
-461 -78 -20 -232 -20 -310 1 -222 58 -402 238 -460 460 -21 78 -21 232 0 310
29 114 82 203 169 290 168 166 371 223 601 169z"/>
<path d="M906 1659 c-136 -22 -233 -74 -336 -178 -119 -121 -172 -250 -172
-421 0 -174 53 -301 177 -425 124 -124 249 -176 426 -177 157 0 291 51 404
154 82 75 132 151 168 258 52 149 39 334 -34 471 -123 230 -381 361 -633 318z
m239 -24 c102 -26 183 -73 266 -155 88 -87 129 -155 158 -260 39 -141 24 -294
-42 -430 -39 -79 -157 -202 -237 -248 -81 -45 -189 -72 -290 -72 -169 0 -292
52 -415 175 -124 123 -175 245 -175 415 0 170 51 292 175 415 85 86 164 133
265 159 73 19 221 20 295 1z"/>
</g>
</svg>
